<?xml version="1.0" encoding="UTF-8" standalone="no"?>
<!DOCTYPE svg PUBLIC "-//W3C//DTD SVG 1.1//EN"
 "http://www.w3.org/Graphics/SVG/1.1/DTD/svg11.dtd">
<!-- Generated by graphviz version 14.1.2 (0)
 -->
<!-- Pages: 1 -->
<svg width="984pt" height="534pt"
 viewBox="0.00 0.00 984.00 534.00" xmlns="http://www.w3.org/2000/svg" xmlns:xlink="http://www.w3.org/1999/xlink">
<g id="graph0" class="graph" transform="scale(1 1) rotate(0) translate(4 530.12)">
<polygon fill="white" stroke="none" points="-4,4 -4,-530.12 979.5,-530.12 979.5,4 -4,4"/>
<!-- alembic_version -->
<g id="node1" class="node">
<title>alembic_version</title>
<polygon fill="none" stroke="black" points="8,-29.75 8,-58.5 271.5,-58.5 271.5,-29.75 8,-29.75"/>
<text xml:space="preserve" text-anchor="start" x="76.75" y="-39.3" font-family="Helvetica,sans-Serif" font-weight="bold" font-size="16.00">alembic_version</text>
<polygon fill="none" stroke="black" points="8,-4 8,-29.75 271.5,-29.75 271.5,-4 8,-4"/>
<text xml:space="preserve" text-anchor="start" x="13" y="-12.45" font-family="Helvetica,sans-Serif" text-decoration="underline" font-size="14.00">version_num</text>
<text xml:space="preserve" text-anchor="start" x="91" y="-12.45" font-family="Helvetica,sans-Serif" font-size="14.00"> </text>
<text xml:space="preserve" text-anchor="start" x="94.75" y="-12.45" font-family="Helvetica,sans-Serif" font-size="14.00"> [VARCHAR(32)]</text>
<text xml:space="preserve" text-anchor="start" x="195.25" y="-12.45" font-family="Helvetica,sans-Serif" font-size="14.00"> NOT NULL</text>
</g>
<!-- categories -->
<g id="node2" class="node">
<title>categories</title>
<polygon fill="none" stroke="black" points="391.25,-493.38 391.25,-522.12 619.5,-522.12 619.5,-493.38 391.25,-493.38"/>
<text xml:space="preserve" text-anchor="start" x="465.25" y="-502.93" font-family="Helvetica,sans-Serif" font-weight="bold" font-size="16.00">categories</text>
<polygon fill="none" stroke="black" points="391.25,-467.62 391.25,-493.38 619.5,-493.38 619.5,-467.62 391.25,-467.62"/>
<text xml:space="preserve" text-anchor="start" x="396.25" y="-476.07" font-family="Helvetica,sans-Serif" text-decoration="underline" font-size="14.00">id</text>
<text xml:space="preserve" text-anchor="start" x="406.75" y="-476.07" font-family="Helvetica,sans-Serif" font-size="14.00"> </text>
<text xml:space="preserve" text-anchor="start" x="410.5" y="-476.07" font-family="Helvetica,sans-Serif" font-size="14.00"> [INTEGER]</text>
<text xml:space="preserve" text-anchor="start" x="482.5" y="-476.07" font-family="Helvetica,sans-Serif" font-size="14.00"> NOT NULL</text>
<polygon fill="none" stroke="black" points="391.25,-441.88 391.25,-467.62 619.5,-467.62 619.5,-441.88 391.25,-441.88"/>
<text xml:space="preserve" text-anchor="start" x="396.25" y="-450.32" font-family="Helvetica,sans-Serif" font-size="14.00">color</text>
<text xml:space="preserve" text-anchor="start" x="425.5" y="-450.32" font-family="Helvetica,sans-Serif" font-size="14.00"> </text>
<text xml:space="preserve" text-anchor="start" x="429.25" y="-450.32" font-family="Helvetica,sans-Serif" font-size="14.00"> [VARCHAR(7)]</text>
<text xml:space="preserve" text-anchor="start" x="522.25" y="-450.32" font-family="Helvetica,sans-Serif" font-size="14.00"> NOT NULL</text>
<polygon fill="none" stroke="black" points="391.25,-416.12 391.25,-441.88 619.5,-441.88 619.5,-416.12 391.25,-416.12"/>
<text xml:space="preserve" text-anchor="start" x="396.25" y="-424.57" font-family="Helvetica,sans-Serif" font-size="14.00">created_at</text>
<text xml:space="preserve" text-anchor="start" x="460" y="-424.57" font-family="Helvetica,sans-Serif" font-size="14.00"> </text>
<text xml:space="preserve" text-anchor="start" x="463.75" y="-424.57" font-family="Helvetica,sans-Serif" font-size="14.00"> [DATETIME]</text>
<text xml:space="preserve" text-anchor="start" x="543.25" y="-424.57" font-family="Helvetica,sans-Serif" font-size="14.00"> NOT NULL</text>
<polygon fill="none" stroke="black" points="391.25,-390.38 391.25,-416.12 619.5,-416.12 619.5,-390.38 391.25,-390.38"/>
<text xml:space="preserve" text-anchor="start" x="396.25" y="-398.82" font-family="Helvetica,sans-Serif" font-size="14.00">name</text>
<text xml:space="preserve" text-anchor="start" x="430.75" y="-398.82" font-family="Helvetica,sans-Serif" font-size="14.00"> </text>
<text xml:space="preserve" text-anchor="start" x="434.5" y="-398.82" font-family="Helvetica,sans-Serif" font-size="14.00"> [VARCHAR(12)]</text>
<text xml:space="preserve" text-anchor="start" x="535" y="-398.82" font-family="Helvetica,sans-Serif" font-size="14.00"> NOT NULL</text>
</g>
<!-- memo_categories -->
<g id="node3" class="node">
<title>memo_categories</title>
<polygon fill="none" stroke="black" points="740,-401.62 740,-430.38 966.75,-430.38 966.75,-401.62 740,-401.62"/>
<text xml:space="preserve" text-anchor="start" x="785.12" y="-411.18" font-family="Helvetica,sans-Serif" font-weight="bold" font-size="16.00">memo_categories</text>
<polygon fill="none" stroke="black" points="740,-375.88 740,-401.62 966.75,-401.62 966.75,-375.88 740,-375.88"/>
<text xml:space="preserve" text-anchor="start" x="745" y="-384.32" font-family="Helvetica,sans-Serif" text-decoration="underline" font-size="14.00">category_id</text>
<text xml:space="preserve" text-anchor="start" x="814.75" y="-384.32" font-family="Helvetica,sans-Serif" font-size="14.00"> </text>
<text xml:space="preserve" text-anchor="start" x="818.5" y="-384.32" font-family="Helvetica,sans-Serif" font-size="14.00"> [INTEGER]</text>
<text xml:space="preserve" text-anchor="start" x="890.5" y="-384.32" font-family="Helvetica,sans-Serif" font-size="14.00"> NOT NULL</text>
<polygon fill="none" stroke="black" points="740,-350.12 740,-375.88 966.75,-375.88 966.75,-350.12 740,-350.12"/>
<text xml:space="preserve" text-anchor="start" x="745" y="-358.57" font-family="Helvetica,sans-Serif" text-decoration="underline" font-size="14.00">memo_id</text>
<text xml:space="preserve" text-anchor="start" x="802" y="-358.57" font-family="Helvetica,sans-Serif" font-size="14.00"> </text>
<text xml:space="preserve" text-anchor="start" x="805.75" y="-358.57" font-family="Helvetica,sans-Serif" font-size="14.00"> [INTEGER]</text>
<text xml:space="preserve" text-anchor="start" x="877.75" y="-358.57" font-family="Helvetica,sans-Serif" font-size="14.00"> NOT NULL</text>
</g>
<!-- categories&#45;&#45;memo_categories -->
<g id="edge1" class="edge">
<title>categories&#45;&#45;memo_categories</title>
<path fill="none" stroke="#7f7f7f" stroke-dasharray="5,2" d="M627.39,-433.17C661.3,-426.7 698.14,-419.67 732.01,-413.21"/>
<text xml:space="preserve" text-anchor="start" x="708.01" y="-416.41" font-family="Times New Roman,serif" font-size="14.00">0..N</text>
<text xml:space="preserve" text-anchor="start" x="627.39" y="-419.87" font-family="Times New Roman,serif" font-size="14.00">1</text>
</g>
<!-- favorites -->
<g id="node4" class="node">
<title>favorites</title>
<polygon fill="none" stroke="black" points="739.25,-260.25 739.25,-289 967.5,-289 967.5,-260.25 739.25,-260.25"/>
<text xml:space="preserve" text-anchor="start" x="820" y="-269.8" font-family="Helvetica,sans-Serif" font-weight="bold" font-size="16.00">favorites</text>
<polygon fill="none" stroke="black" points="739.25,-234.5 739.25,-260.25 967.5,-260.25 967.5,-234.5 739.25,-234.5"/>
<text xml:space="preserve" text-anchor="start" x="744.25" y="-242.95" font-family="Helvetica,sans-Serif" text-decoration="underline" font-size="14.00">id</text>
<text xml:space="preserve" text-anchor="start" x="754.75" y="-242.95" font-family="Helvetica,sans-Serif" font-size="14.00"> </text>
<text xml:space="preserve" text-anchor="start" x="758.5" y="-242.95" font-family="Helvetica,sans-Serif" font-size="14.00"> [INTEGER]</text>
<text xml:space="preserve" text-anchor="start" x="830.5" y="-242.95" font-family="Helvetica,sans-Serif" font-size="14.00"> NOT NULL</text>
<polygon fill="none" stroke="black" points="739.25,-208.75 739.25,-234.5 967.5,-234.5 967.5,-208.75 739.25,-208.75"/>
<text xml:space="preserve" text-anchor="start" x="744.25" y="-217.2" font-family="Helvetica,sans-Serif" font-size="14.00">created_at</text>
<text xml:space="preserve" text-anchor="start" x="808" y="-217.2" font-family="Helvetica,sans-Serif" font-size="14.00"> </text>
<text xml:space="preserve" text-anchor="start" x="811.75" y="-217.2" font-family="Helvetica,sans-Serif" font-size="14.00"> [DATETIME]</text>
<text xml:space="preserve" text-anchor="start" x="891.25" y="-217.2" font-family="Helvetica,sans-Serif" font-size="14.00"> NOT NULL</text>
<polygon fill="none" stroke="black" points="739.25,-183 739.25,-208.75 967.5,-208.75 967.5,-183 739.25,-183"/>
<text xml:space="preserve" text-anchor="start" x="744.25" y="-191.45" font-family="Helvetica,sans-Serif" font-size="14.00">memo_id</text>
<text xml:space="preserve" text-anchor="start" x="801.25" y="-191.45" font-family="Helvetica,sans-Serif" font-size="14.00"> </text>
<text xml:space="preserve" text-anchor="start" x="805" y="-191.45" font-family="Helvetica,sans-Serif" font-size="14.00"> [INTEGER]</text>
<text xml:space="preserve" text-anchor="start" x="877" y="-191.45" font-family="Helvetica,sans-Serif" font-size="14.00"> NOT NULL</text>
<polygon fill="none" stroke="black" points="739.25,-157.25 739.25,-183 967.5,-183 967.5,-157.25 739.25,-157.25"/>
<text xml:space="preserve" text-anchor="start" x="744.25" y="-165.7" font-family="Helvetica,sans-Serif" font-size="14.00">rank</text>
<text xml:space="preserve" text-anchor="start" x="770.5" y="-165.7" font-family="Helvetica,sans-Serif" font-size="14.00"> </text>
<text xml:space="preserve" text-anchor="start" x="774.25" y="-165.7" font-family="Helvetica,sans-Serif" font-size="14.00"> [INTEGER]</text>
<polygon fill="none" stroke="black" points="739.25,-131.5 739.25,-157.25 967.5,-157.25 967.5,-131.5 739.25,-131.5"/>
<text xml:space="preserve" text-anchor="start" x="744.25" y="-139.95" font-family="Helvetica,sans-Serif" font-size="14.00">user_id</text>
<text xml:space="preserve" text-anchor="start" x="788.5" y="-139.95" font-family="Helvetica,sans-Serif" font-size="14.00"> </text>
<text xml:space="preserve" text-anchor="start" x="792.25" y="-139.95" font-family="Helvetica,sans-Serif" font-size="14.00"> [INTEGER]</text>
<text xml:space="preserve" text-anchor="start" x="864.25" y="-139.95" font-family="Helvetica,sans-Serif" font-size="14.00"> NOT NULL</text>
</g>
<!-- memos -->
<g id="node5" class="node">
<title>memos</title>
<polygon fill="none" stroke="black" points="360.5,-335.12 360.5,-363.88 650.25,-363.88 650.25,-335.12 360.5,-335.12"/>
<text xml:space="preserve" text-anchor="start" x="477.25" y="-344.68" font-family="Helvetica,sans-Serif" font-weight="bold" font-size="16.00">memos</text>
<polygon fill="none" stroke="black" points="360.5,-309.38 360.5,-335.12 650.25,-335.12 650.25,-309.38 360.5,-309.38"/>
<text xml:space="preserve" text-anchor="start" x="365.5" y="-317.82" font-family="Helvetica,sans-Serif" text-decoration="underline" font-size="14.00">id</text>
<text xml:space="preserve" text-anchor="start" x="376" y="-317.82" font-family="Helvetica,sans-Serif" font-size="14.00"> </text>
<text xml:space="preserve" text-anchor="start" x="379.75" y="-317.82" font-family="Helvetica,sans-Serif" font-size="14.00"> [INTEGER]</text>
<text xml:space="preserve" text-anchor="start" x="451.75" y="-317.82" font-family="Helvetica,sans-Serif" font-size="14.00"> NOT NULL</text>
<polygon fill="none" stroke="black" points="360.5,-283.62 360.5,-309.38 650.25,-309.38 650.25,-283.62 360.5,-283.62"/>
<text xml:space="preserve" text-anchor="start" x="365.5" y="-292.07" font-family="Helvetica,sans-Serif" font-size="14.00">content</text>
<text xml:space="preserve" text-anchor="start" x="409.75" y="-292.07" font-family="Helvetica,sans-Serif" font-size="14.00"> </text>
<text xml:space="preserve" text-anchor="start" x="413.5" y="-292.07" font-family="Helvetica,sans-Serif" font-size="14.00"> [TEXT]</text>
<text xml:space="preserve" text-anchor="start" x="459.25" y="-292.07" font-family="Helvetica,sans-Serif" font-size="14.00"> NOT NULL</text>
<polygon fill="none" stroke="black" points="360.5,-257.88 360.5,-283.62 650.25,-283.62 650.25,-257.88 360.5,-257.88"/>
<text xml:space="preserve" text-anchor="start" x="365.5" y="-266.32" font-family="Helvetica,sans-Serif" font-size="14.00">created_at</text>
<text xml:space="preserve" text-anchor="start" x="429.25" y="-266.32" font-family="Helvetica,sans-Serif" font-size="14.00"> </text>
<text xml:space="preserve" text-anchor="start" x="433" y="-266.32" font-family="Helvetica,sans-Serif" font-size="14.00"> [DATETIME]</text>
<text xml:space="preserve" text-anchor="start" x="512.5" y="-266.32" font-family="Helvetica,sans-Serif" font-size="14.00"> NOT NULL</text>
<polygon fill="none" stroke="black" points="360.5,-232.12 360.5,-257.88 650.25,-257.88 650.25,-232.12 360.5,-232.12"/>
<text xml:space="preserve" text-anchor="start" x="365.5" y="-240.57" font-family="Helvetica,sans-Serif" font-size="14.00">image_filename</text>
<text xml:space="preserve" text-anchor="start" x="462.25" y="-240.57" font-family="Helvetica,sans-Serif" font-size="14.00"> </text>
<text xml:space="preserve" text-anchor="start" x="466" y="-240.57" font-family="Helvetica,sans-Serif" font-size="14.00"> [VARCHAR(255)]</text>
<text xml:space="preserve" text-anchor="start" x="574" y="-240.57" font-family="Helvetica,sans-Serif" font-size="14.00"> NOT NULL</text>
<polygon fill="none" stroke="black" points="360.5,-206.38 360.5,-232.12 650.25,-232.12 650.25,-206.38 360.5,-206.38"/>
<text xml:space="preserve" text-anchor="start" x="365.5" y="-214.82" font-family="Helvetica,sans-Serif" font-size="14.00">title</text>
<text xml:space="preserve" text-anchor="start" x="386.5" y="-214.82" font-family="Helvetica,sans-Serif" font-size="14.00"> </text>
<text xml:space="preserve" text-anchor="start" x="390.25" y="-214.82" font-family="Helvetica,sans-Serif" font-size="14.00"> [VARCHAR(50)]</text>
<text xml:space="preserve" text-anchor="start" x="490.75" y="-214.82" font-family="Helvetica,sans-Serif" font-size="14.00"> NOT NULL</text>
<polygon fill="none" stroke="black" points="360.5,-180.62 360.5,-206.38 650.25,-206.38 650.25,-180.62 360.5,-180.62"/>
<text xml:space="preserve" text-anchor="start" x="365.5" y="-189.07" font-family="Helvetica,sans-Serif" font-size="14.00">user_id</text>
<text xml:space="preserve" text-anchor="start" x="409.75" y="-189.07" font-family="Helvetica,sans-Serif" font-size="14.00"> </text>
<text xml:space="preserve" text-anchor="start" x="413.5" y="-189.07" font-family="Helvetica,sans-Serif" font-size="14.00"> [INTEGER]</text>
<text xml:space="preserve" text-anchor="start" x="485.5" y="-189.07" font-family="Helvetica,sans-Serif" font-size="14.00"> NOT NULL</text>
</g>
<!-- memos&#45;&#45;memo_categories -->
<g id="edge3" class="edge">
<title>memos&#45;&#45;memo_categories</title>
<path fill="none" stroke="#7f7f7f" stroke-dasharray="5,2" d="M658.14,-324.01C682.92,-332.46 708.3,-341.11 732.19,-349.26"/>
<text xml:space="preserve" text-anchor="start" x="708.19" y="-335.96" font-family="Times New Roman,serif" font-size="14.00">0..N</text>
<text xml:space="preserve" text-anchor="start" x="658.14" y="-310.71" font-family="Times New Roman,serif" font-size="14.00">1</text>
</g>
<!-- memos&#45;&#45;favorites -->
<g id="edge2" class="edge">
<title>memos&#45;&#45;favorites</title>
<path fill="none" stroke="#7f7f7f" stroke-dasharray="5,2" d="M658.14,-245.06C682.65,-240.66 707.74,-236.17 731.4,-231.93"/>
<text xml:space="preserve" text-anchor="start" x="707.4" y="-218.63" font-family="Times New Roman,serif" font-size="14.00">0..N</text>
<text xml:space="preserve" text-anchor="start" x="658.14" y="-231.76" font-family="Times New Roman,serif" font-size="14.00">1</text>
</g>
<!-- users -->
<g id="node6" class="node">
<title>users</title>
<polygon fill="none" stroke="black" points="17.38,-265 17.38,-293.75 262.12,-293.75 262.12,-265 17.38,-265"/>
<text xml:space="preserve" text-anchor="start" x="118.38" y="-274.55" font-family="Helvetica,sans-Serif" font-weight="bold" font-size="16.00">users</text>
<polygon fill="none" stroke="black" points="17.38,-239.25 17.38,-265 262.12,-265 262.12,-239.25 17.38,-239.25"/>
<text xml:space="preserve" text-anchor="start" x="22.38" y="-247.7" font-family="Helvetica,sans-Serif" text-decoration="underline" font-size="14.00">id</text>
<text xml:space="preserve" text-anchor="start" x="32.88" y="-247.7" font-family="Helvetica,sans-Serif" font-size="14.00"> </text>
<text xml:space="preserve" text-anchor="start" x="36.62" y="-247.7" font-family="Helvetica,sans-Serif" font-size="14.00"> [INTEGER]</text>
<text xml:space="preserve" text-anchor="start" x="108.62" y="-247.7" font-family="Helvetica,sans-Serif" font-size="14.00"> NOT NULL</text>
<polygon fill="none" stroke="black" points="17.38,-213.5 17.38,-239.25 262.12,-239.25 262.12,-213.5 17.38,-213.5"/>
<text xml:space="preserve" text-anchor="start" x="22.38" y="-221.95" font-family="Helvetica,sans-Serif" font-size="14.00">email</text>
<text xml:space="preserve" text-anchor="start" x="55.38" y="-221.95" font-family="Helvetica,sans-Serif" font-size="14.00"> </text>
<text xml:space="preserve" text-anchor="start" x="59.12" y="-221.95" font-family="Helvetica,sans-Serif" font-size="14.00"> [VARCHAR(120)]</text>
<polygon fill="none" stroke="black" points="17.38,-187.75 17.38,-213.5 262.12,-213.5 262.12,-187.75 17.38,-187.75"/>
<text xml:space="preserve" text-anchor="start" x="22.38" y="-196.2" font-family="Helvetica,sans-Serif" font-size="14.00">oauth_provider</text>
<text xml:space="preserve" text-anchor="start" x="112.38" y="-196.2" font-family="Helvetica,sans-Serif" font-size="14.00"> </text>
<text xml:space="preserve" text-anchor="start" x="116.12" y="-196.2" font-family="Helvetica,sans-Serif" font-size="14.00"> [VARCHAR(50)]</text>
<polygon fill="none" stroke="black" points="17.38,-162 17.38,-187.75 262.12,-187.75 262.12,-162 17.38,-162"/>
<text xml:space="preserve" text-anchor="start" x="22.38" y="-170.45" font-family="Helvetica,sans-Serif" font-size="14.00">oauth_sub</text>
<text xml:space="preserve" text-anchor="start" x="85.38" y="-170.45" font-family="Helvetica,sans-Serif" font-size="14.00"> </text>
<text xml:space="preserve" text-anchor="start" x="89.12" y="-170.45" font-family="Helvetica,sans-Serif" font-size="14.00"> [VARCHAR(255)]</text>
<polygon fill="none" stroke="black" points="17.38,-136.25 17.38,-162 262.12,-162 262.12,-136.25 17.38,-136.25"/>
<text xml:space="preserve" text-anchor="start" x="22.38" y="-144.7" font-family="Helvetica,sans-Serif" font-size="14.00">password</text>
<text xml:space="preserve" text-anchor="start" x="80.12" y="-144.7" font-family="Helvetica,sans-Serif" font-size="14.00"> </text>
<text xml:space="preserve" text-anchor="start" x="83.88" y="-144.7" font-family="Helvetica,sans-Serif" font-size="14.00"> [VARCHAR(120)]</text>
<polygon fill="none" stroke="black" points="17.38,-110.5 17.38,-136.25 262.12,-136.25 262.12,-110.5 17.38,-110.5"/>
<text xml:space="preserve" text-anchor="start" x="22.38" y="-118.95" font-family="Helvetica,sans-Serif" font-size="14.00">thumbnail</text>
<text xml:space="preserve" text-anchor="start" x="81.62" y="-118.95" font-family="Helvetica,sans-Serif" font-size="14.00"> </text>
<text xml:space="preserve" text-anchor="start" x="85.38" y="-118.95" font-family="Helvetica,sans-Serif" font-size="14.00"> [VARCHAR(50)]</text>
<text xml:space="preserve" text-anchor="start" x="185.88" y="-118.95" font-family="Helvetica,sans-Serif" font-size="14.00"> NOT NULL</text>
<polygon fill="none" stroke="black" points="17.38,-84.75 17.38,-110.5 262.12,-110.5 262.12,-84.75 17.38,-84.75"/>
<text xml:space="preserve" text-anchor="start" x="22.38" y="-93.2" font-family="Helvetica,sans-Serif" font-size="14.00">username</text>
<text xml:space="preserve" text-anchor="start" x="83.12" y="-93.2" font-family="Helvetica,sans-Serif" font-size="14.00"> </text>
<text xml:space="preserve" text-anchor="start" x="86.88" y="-93.2" font-family="Helvetica,sans-Serif" font-size="14.00"> [VARCHAR(12)]</text>
</g>
<!-- users&#45;&#45;favorites -->
<g id="edge4" class="edge">
<title>users&#45;&#45;favorites</title>
<path fill="none" stroke="#7f7f7f" stroke-dasharray="5,2" d="M270.04,-172.94C374.95,-162.31 526.51,-152.83 658.25,-167.25 682.1,-169.86 707.31,-174.22 731.38,-179.19"/>
<text xml:space="preserve" text-anchor="start" x="707.38" y="-165.89" font-family="Times New Roman,serif" font-size="14.00">0..N</text>
<text xml:space="preserve" text-anchor="start" x="270.04" y="-159.64" font-family="Times New Roman,serif" font-size="14.00">1</text>
</g>
<!-- users&#45;&#45;memos -->
<g id="edge5" class="edge">
<title>users&#45;&#45;memos</title>
<path fill="none" stroke="#7f7f7f" stroke-dasharray="5,2" d="M269.97,-218.75C296.72,-224.85 325.12,-231.33 352.58,-237.6"/>
<text xml:space="preserve" text-anchor="start" x="328.58" y="-224.3" font-family="Times New Roman,serif" font-size="14.00">0..N</text>
<text xml:space="preserve" text-anchor="start" x="269.97" y="-205.45" font-family="Times New Roman,serif" font-size="14.00">1</text>
</g>
</g>
</svg>
