<?xml version="1.0" encoding="UTF-8" standalone="no"?>
<!DOCTYPE svg PUBLIC "-//W3C//DTD SVG 1.1//EN"
 "http://www.w3.org/Graphics/SVG/1.1/DTD/svg11.dtd">
<!-- Generated by graphviz version 14.1.2 (20260124.0452)
 -->
<!-- Pages: 1 -->
<svg width="984pt" height="982pt"
 viewBox="0.00 0.00 984.00 982.00" xmlns="http://www.w3.org/2000/svg" xmlns:xlink="http://www.w3.org/1999/xlink">
<g id="graph0" class="graph" transform="scale(1 1) rotate(0) translate(4 978.25)">
<polygon fill="white" stroke="none" points="-4,4 -4,-978.25 979.5,-978.25 979.5,4 -4,4"/>
<!-- alembic_version -->
<g id="node1" class="node">
<title>alembic_version</title>
<polygon fill="none" stroke="black" points="8,-29.75 8,-58.5 271.5,-58.5 271.5,-29.75 8,-29.75"/>
<text xml:space="preserve" text-anchor="start" x="76.75" y="-39.3" font-family="Helvetica,sans-Serif" font-weight="bold" font-size="16.00">alembic_version</text>
<polygon fill="none" stroke="black" points="8,-4 8,-29.75 271.5,-29.75 271.5,-4 8,-4"/>
<text xml:space="preserve" text-anchor="start" x="13" y="-12.45" font-family="Helvetica,sans-Serif" text-decoration="underline" font-size="14.00">version_num</text>
<text xml:space="preserve" text-anchor="start" x="91" y="-12.45" font-family="Helvetica,sans-Serif" font-size="14.00"> </text>
<text xml:space="preserve" text-anchor="start" x="94.75" y="-12.45" font-family="Helvetica,sans-Serif" font-size="14.00"> [VARCHAR(32)]</text>
<text xml:space="preserve" text-anchor="start" x="195.25" y="-12.45" font-family="Helvetica,sans-Serif" font-size="14.00"> NOT NULL</text>
</g>
<!-- categories -->
<g id="node2" class="node">
<title>categories</title>
<polygon fill="none" stroke="black" points="391.25,-666.38 391.25,-695.12 619.5,-695.12 619.5,-666.38 391.25,-666.38"/>
<text xml:space="preserve" text-anchor="start" x="465.25" y="-675.92" font-family="Helvetica,sans-Serif" font-weight="bold" font-size="16.00">categories</text>
<polygon fill="none" stroke="black" points="391.25,-640.62 391.25,-666.38 619.5,-666.38 619.5,-640.62 391.25,-640.62"/>
<text xml:space="preserve" text-anchor="start" x="396.25" y="-649.08" font-family="Helvetica,sans-Serif" text-decoration="underline" font-size="14.00">id</text>
<text xml:space="preserve" text-anchor="start" x="406.75" y="-649.08" font-family="Helvetica,sans-Serif" font-size="14.00"> </text>
<text xml:space="preserve" text-anchor="start" x="410.5" y="-649.08" font-family="Helvetica,sans-Serif" font-size="14.00"> [INTEGER]</text>
<text xml:space="preserve" text-anchor="start" x="482.5" y="-649.08" font-family="Helvetica,sans-Serif" font-size="14.00"> NOT NULL</text>
<polygon fill="none" stroke="black" points="391.25,-614.88 391.25,-640.62 619.5,-640.62 619.5,-614.88 391.25,-614.88"/>
<text xml:space="preserve" text-anchor="start" x="396.25" y="-623.33" font-family="Helvetica,sans-Serif" font-size="14.00">color</text>
<text xml:space="preserve" text-anchor="start" x="425.5" y="-623.33" font-family="Helvetica,sans-Serif" font-size="14.00"> </text>
<text xml:space="preserve" text-anchor="start" x="429.25" y="-623.33" font-family="Helvetica,sans-Serif" font-size="14.00"> [VARCHAR(7)]</text>
<text xml:space="preserve" text-anchor="start" x="522.25" y="-623.33" font-family="Helvetica,sans-Serif" font-size="14.00"> NOT NULL</text>
<polygon fill="none" stroke="black" points="391.25,-589.12 391.25,-614.88 619.5,-614.88 619.5,-589.12 391.25,-589.12"/>
<text xml:space="preserve" text-anchor="start" x="396.25" y="-597.58" font-family="Helvetica,sans-Serif" font-size="14.00">created_at</text>
<text xml:space="preserve" text-anchor="start" x="460" y="-597.58" font-family="Helvetica,sans-Serif" font-size="14.00"> </text>
<text xml:space="preserve" text-anchor="start" x="463.75" y="-597.58" font-family="Helvetica,sans-Serif" font-size="14.00"> [DATETIME]</text>
<text xml:space="preserve" text-anchor="start" x="543.25" y="-597.58" font-family="Helvetica,sans-Serif" font-size="14.00"> NOT NULL</text>
<polygon fill="none" stroke="black" points="391.25,-563.38 391.25,-589.12 619.5,-589.12 619.5,-563.38 391.25,-563.38"/>
<text xml:space="preserve" text-anchor="start" x="396.25" y="-571.83" font-family="Helvetica,sans-Serif" font-size="14.00">name</text>
<text xml:space="preserve" text-anchor="start" x="430.75" y="-571.83" font-family="Helvetica,sans-Serif" font-size="14.00"> </text>
<text xml:space="preserve" text-anchor="start" x="434.5" y="-571.83" font-family="Helvetica,sans-Serif" font-size="14.00"> [VARCHAR(12)]</text>
<text xml:space="preserve" text-anchor="start" x="535" y="-571.83" font-family="Helvetica,sans-Serif" font-size="14.00"> NOT NULL</text>
</g>
<!-- memo_categories -->
<g id="node3" class="node">
<title>memo_categories</title>
<polygon fill="none" stroke="black" points="740,-553.62 740,-582.38 966.75,-582.38 966.75,-553.62 740,-553.62"/>
<text xml:space="preserve" text-anchor="start" x="785.12" y="-563.17" font-family="Helvetica,sans-Serif" font-weight="bold" font-size="16.00">memo_categories</text>
<polygon fill="none" stroke="black" points="740,-527.88 740,-553.62 966.75,-553.62 966.75,-527.88 740,-527.88"/>
<text xml:space="preserve" text-anchor="start" x="745" y="-536.33" font-family="Helvetica,sans-Serif" text-decoration="underline" font-size="14.00">category_id</text>
<text xml:space="preserve" text-anchor="start" x="814.75" y="-536.33" font-family="Helvetica,sans-Serif" font-size="14.00"> </text>
<text xml:space="preserve" text-anchor="start" x="818.5" y="-536.33" font-family="Helvetica,sans-Serif" font-size="14.00"> [INTEGER]</text>
<text xml:space="preserve" text-anchor="start" x="890.5" y="-536.33" font-family="Helvetica,sans-Serif" font-size="14.00"> NOT NULL</text>
<polygon fill="none" stroke="black" points="740,-502.12 740,-527.88 966.75,-527.88 966.75,-502.12 740,-502.12"/>
<text xml:space="preserve" text-anchor="start" x="745" y="-510.57" font-family="Helvetica,sans-Serif" text-decoration="underline" font-size="14.00">memo_id</text>
<text xml:space="preserve" text-anchor="start" x="802" y="-510.57" font-family="Helvetica,sans-Serif" font-size="14.00"> </text>
<text xml:space="preserve" text-anchor="start" x="805.75" y="-510.57" font-family="Helvetica,sans-Serif" font-size="14.00"> [INTEGER]</text>
<text xml:space="preserve" text-anchor="start" x="877.75" y="-510.57" font-family="Helvetica,sans-Serif" font-size="14.00"> NOT NULL</text>
</g>
<!-- categories&#45;&#45;memo_categories -->
<g id="edge1" class="edge">
<title>categories&#45;&#45;memo_categories</title>
<path fill="none" stroke="#7f7f7f" stroke-dasharray="5,2" d="M627.39,-598.82C661.3,-590.3 698.14,-581.03 732.01,-572.51"/>
<text xml:space="preserve" text-anchor="start" x="708.01" y="-575.71" font-family="Times New Roman,serif" font-size="14.00">0..N</text>
<text xml:space="preserve" text-anchor="start" x="627.39" y="-585.52" font-family="Times New Roman,serif" font-size="14.00">1</text>
</g>
<!-- favorites -->
<g id="node4" class="node">
<title>favorites</title>
<polygon fill="none" stroke="black" points="739.25,-396.25 739.25,-425 967.5,-425 967.5,-396.25 739.25,-396.25"/>
<text xml:space="preserve" text-anchor="start" x="820" y="-405.8" font-family="Helvetica,sans-Serif" font-weight="bold" font-size="16.00">favorites</text>
<polygon fill="none" stroke="black" points="739.25,-370.5 739.25,-396.25 967.5,-396.25 967.5,-370.5 739.25,-370.5"/>
<text xml:space="preserve" text-anchor="start" x="744.25" y="-378.95" font-family="Helvetica,sans-Serif" text-decoration="underline" font-size="14.00">id</text>
<text xml:space="preserve" text-anchor="start" x="754.75" y="-378.95" font-family="Helvetica,sans-Serif" font-size="14.00"> </text>
<text xml:space="preserve" text-anchor="start" x="758.5" y="-378.95" font-family="Helvetica,sans-Serif" font-size="14.00"> [INTEGER]</text>
<text xml:space="preserve" text-anchor="start" x="830.5" y="-378.95" font-family="Helvetica,sans-Serif" font-size="14.00"> NOT NULL</text>
<polygon fill="none" stroke="black" points="739.25,-344.75 739.25,-370.5 967.5,-370.5 967.5,-344.75 739.25,-344.75"/>
<text xml:space="preserve" text-anchor="start" x="744.25" y="-353.2" font-family="Helvetica,sans-Serif" font-size="14.00">created_at</text>
<text xml:space="preserve" text-anchor="start" x="808" y="-353.2" font-family="Helvetica,sans-Serif" font-size="14.00"> </text>
<text xml:space="preserve" text-anchor="start" x="811.75" y="-353.2" font-family="Helvetica,sans-Serif" font-size="14.00"> [DATETIME]</text>
<text xml:space="preserve" text-anchor="start" x="891.25" y="-353.2" font-family="Helvetica,sans-Serif" font-size="14.00"> NOT NULL</text>
<polygon fill="none" stroke="black" points="739.25,-319 739.25,-344.75 967.5,-344.75 967.5,-319 739.25,-319"/>
<text xml:space="preserve" text-anchor="start" x="744.25" y="-327.45" font-family="Helvetica,sans-Serif" font-size="14.00">memo_id</text>
<text xml:space="preserve" text-anchor="start" x="801.25" y="-327.45" font-family="Helvetica,sans-Serif" font-size="14.00"> </text>
<text xml:space="preserve" text-anchor="start" x="805" y="-327.45" font-family="Helvetica,sans-Serif" font-size="14.00"> [INTEGER]</text>
<text xml:space="preserve" text-anchor="start" x="877" y="-327.45" font-family="Helvetica,sans-Serif" font-size="14.00"> NOT NULL</text>
<polygon fill="none" stroke="black" points="739.25,-293.25 739.25,-319 967.5,-319 967.5,-293.25 739.25,-293.25"/>
<text xml:space="preserve" text-anchor="start" x="744.25" y="-301.7" font-family="Helvetica,sans-Serif" font-size="14.00">rank</text>
<text xml:space="preserve" text-anchor="start" x="770.5" y="-301.7" font-family="Helvetica,sans-Serif" font-size="14.00"> </text>
<text xml:space="preserve" text-anchor="start" x="774.25" y="-301.7" font-family="Helvetica,sans-Serif" font-size="14.00"> [INTEGER]</text>
<polygon fill="none" stroke="black" points="739.25,-267.5 739.25,-293.25 967.5,-293.25 967.5,-267.5 739.25,-267.5"/>
<text xml:space="preserve" text-anchor="start" x="744.25" y="-275.95" font-family="Helvetica,sans-Serif" font-size="14.00">user_id</text>
<text xml:space="preserve" text-anchor="start" x="788.5" y="-275.95" font-family="Helvetica,sans-Serif" font-size="14.00"> </text>
<text xml:space="preserve" text-anchor="start" x="792.25" y="-275.95" font-family="Helvetica,sans-Serif" font-size="14.00"> [INTEGER]</text>
<text xml:space="preserve" text-anchor="start" x="864.25" y="-275.95" font-family="Helvetica,sans-Serif" font-size="14.00"> NOT NULL</text>
</g>
<!-- memos -->
<g id="node5" class="node">
<title>memos</title>
<polygon fill="none" stroke="black" points="360.5,-508.88 360.5,-537.62 650.25,-537.62 650.25,-508.88 360.5,-508.88"/>
<text xml:space="preserve" text-anchor="start" x="477.25" y="-518.42" font-family="Helvetica,sans-Serif" font-weight="bold" font-size="16.00">memos</text>
<polygon fill="none" stroke="black" points="360.5,-483.12 360.5,-508.88 650.25,-508.88 650.25,-483.12 360.5,-483.12"/>
<text xml:space="preserve" text-anchor="start" x="365.5" y="-491.57" font-family="Helvetica,sans-Serif" text-decoration="underline" font-size="14.00">id</text>
<text xml:space="preserve" text-anchor="start" x="376" y="-491.57" font-family="Helvetica,sans-Serif" font-size="14.00"> </text>
<text xml:space="preserve" text-anchor="start" x="379.75" y="-491.57" font-family="Helvetica,sans-Serif" font-size="14.00"> [INTEGER]</text>
<text xml:space="preserve" text-anchor="start" x="451.75" y="-491.57" font-family="Helvetica,sans-Serif" font-size="14.00"> NOT NULL</text>
<polygon fill="none" stroke="black" points="360.5,-457.38 360.5,-483.12 650.25,-483.12 650.25,-457.38 360.5,-457.38"/>
<text xml:space="preserve" text-anchor="start" x="365.5" y="-465.82" font-family="Helvetica,sans-Serif" font-size="14.00">ai_score</text>
<text xml:space="preserve" text-anchor="start" x="416.5" y="-465.82" font-family="Helvetica,sans-Serif" font-size="14.00"> </text>
<text xml:space="preserve" text-anchor="start" x="420.25" y="-465.82" font-family="Helvetica,sans-Serif" font-size="14.00"> [JSON]</text>
<polygon fill="none" stroke="black" points="360.5,-431.62 360.5,-457.38 650.25,-457.38 650.25,-431.62 360.5,-431.62"/>
<text xml:space="preserve" text-anchor="start" x="365.5" y="-440.07" font-family="Helvetica,sans-Serif" font-size="14.00">content</text>
<text xml:space="preserve" text-anchor="start" x="409.75" y="-440.07" font-family="Helvetica,sans-Serif" font-size="14.00"> </text>
<text xml:space="preserve" text-anchor="start" x="413.5" y="-440.07" font-family="Helvetica,sans-Serif" font-size="14.00"> [TEXT]</text>
<text xml:space="preserve" text-anchor="start" x="459.25" y="-440.07" font-family="Helvetica,sans-Serif" font-size="14.00"> NOT NULL</text>
<polygon fill="none" stroke="black" points="360.5,-405.88 360.5,-431.62 650.25,-431.62 650.25,-405.88 360.5,-405.88"/>
<text xml:space="preserve" text-anchor="start" x="365.5" y="-414.32" font-family="Helvetica,sans-Serif" font-size="14.00">created_at</text>
<text xml:space="preserve" text-anchor="start" x="429.25" y="-414.32" font-family="Helvetica,sans-Serif" font-size="14.00"> </text>
<text xml:space="preserve" text-anchor="start" x="433" y="-414.32" font-family="Helvetica,sans-Serif" font-size="14.00"> [DATETIME]</text>
<text xml:space="preserve" text-anchor="start" x="512.5" y="-414.32" font-family="Helvetica,sans-Serif" font-size="14.00"> NOT NULL</text>
<polygon fill="none" stroke="black" points="360.5,-380.12 360.5,-405.88 650.25,-405.88 650.25,-380.12 360.5,-380.12"/>
<text xml:space="preserve" text-anchor="start" x="365.5" y="-388.57" font-family="Helvetica,sans-Serif" font-size="14.00">image_filename</text>
<text xml:space="preserve" text-anchor="start" x="462.25" y="-388.57" font-family="Helvetica,sans-Serif" font-size="14.00"> </text>
<text xml:space="preserve" text-anchor="start" x="466" y="-388.57" font-family="Helvetica,sans-Serif" font-size="14.00"> [VARCHAR(255)]</text>
<text xml:space="preserve" text-anchor="start" x="574" y="-388.57" font-family="Helvetica,sans-Serif" font-size="14.00"> NOT NULL</text>
<polygon fill="none" stroke="black" points="360.5,-354.38 360.5,-380.12 650.25,-380.12 650.25,-354.38 360.5,-354.38"/>
<text xml:space="preserve" text-anchor="start" x="365.5" y="-362.82" font-family="Helvetica,sans-Serif" font-size="14.00">title</text>
<text xml:space="preserve" text-anchor="start" x="386.5" y="-362.82" font-family="Helvetica,sans-Serif" font-size="14.00"> </text>
<text xml:space="preserve" text-anchor="start" x="390.25" y="-362.82" font-family="Helvetica,sans-Serif" font-size="14.00"> [VARCHAR(50)]</text>
<text xml:space="preserve" text-anchor="start" x="490.75" y="-362.82" font-family="Helvetica,sans-Serif" font-size="14.00"> NOT NULL</text>
<polygon fill="none" stroke="black" points="360.5,-328.62 360.5,-354.38 650.25,-354.38 650.25,-328.62 360.5,-328.62"/>
<text xml:space="preserve" text-anchor="start" x="365.5" y="-337.07" font-family="Helvetica,sans-Serif" font-size="14.00">user_id</text>
<text xml:space="preserve" text-anchor="start" x="409.75" y="-337.07" font-family="Helvetica,sans-Serif" font-size="14.00"> </text>
<text xml:space="preserve" text-anchor="start" x="413.5" y="-337.07" font-family="Helvetica,sans-Serif" font-size="14.00"> [INTEGER]</text>
<text xml:space="preserve" text-anchor="start" x="485.5" y="-337.07" font-family="Helvetica,sans-Serif" font-size="14.00"> NOT NULL</text>
<polygon fill="none" stroke="black" points="360.5,-302.88 360.5,-328.62 650.25,-328.62 650.25,-302.88 360.5,-302.88"/>
<text xml:space="preserve" text-anchor="start" x="365.5" y="-311.32" font-family="Helvetica,sans-Serif" font-size="14.00">view_count</text>
<text xml:space="preserve" text-anchor="start" x="433" y="-311.32" font-family="Helvetica,sans-Serif" font-size="14.00"> </text>
<text xml:space="preserve" text-anchor="start" x="436.75" y="-311.32" font-family="Helvetica,sans-Serif" font-size="14.00"> [INTEGER]</text>
<text xml:space="preserve" text-anchor="start" x="508.75" y="-311.32" font-family="Helvetica,sans-Serif" font-size="14.00"> NOT NULL</text>
</g>
<!-- memos&#45;&#45;memo_categories -->
<g id="edge3" class="edge">
<title>memos&#45;&#45;memo_categories</title>
<path fill="none" stroke="#7f7f7f" stroke-dasharray="5,2" d="M658.14,-473.76C682.92,-482.5 708.3,-491.45 732.19,-499.87"/>
<text xml:space="preserve" text-anchor="start" x="708.19" y="-486.57" font-family="Times New Roman,serif" font-size="14.00">0..N</text>
<text xml:space="preserve" text-anchor="start" x="658.14" y="-460.46" font-family="Times New Roman,serif" font-size="14.00">1</text>
</g>
<!-- memos&#45;&#45;favorites -->
<g id="edge2" class="edge">
<title>memos&#45;&#45;favorites</title>
<path fill="none" stroke="#7f7f7f" stroke-dasharray="5,2" d="M658.14,-387.79C682.65,-382.55 707.74,-377.18 731.4,-372.12"/>
<text xml:space="preserve" text-anchor="start" x="707.4" y="-358.82" font-family="Times New Roman,serif" font-size="14.00">0..N</text>
<text xml:space="preserve" text-anchor="start" x="658.14" y="-374.49" font-family="Times New Roman,serif" font-size="14.00">1</text>
</g>
<!-- users -->
<g id="node6" class="node">
<title>users</title>
<polygon fill="none" stroke="black" points="17.38,-522.75 17.38,-551.5 262.12,-551.5 262.12,-522.75 17.38,-522.75"/>
<text xml:space="preserve" text-anchor="start" x="118.38" y="-532.3" font-family="Helvetica,sans-Serif" font-weight="bold" font-size="16.00">users</text>
<polygon fill="none" stroke="black" points="17.38,-497 17.38,-522.75 262.12,-522.75 262.12,-497 17.38,-497"/>
<text xml:space="preserve" text-anchor="start" x="22.38" y="-505.45" font-family="Helvetica,sans-Serif" text-decoration="underline" font-size="14.00">id</text>
<text xml:space="preserve" text-anchor="start" x="32.88" y="-505.45" font-family="Helvetica,sans-Serif" font-size="14.00"> </text>
<text xml:space="preserve" text-anchor="start" x="36.62" y="-505.45" font-family="Helvetica,sans-Serif" font-size="14.00"> [INTEGER]</text>
<text xml:space="preserve" text-anchor="start" x="108.62" y="-505.45" font-family="Helvetica,sans-Serif" font-size="14.00"> NOT NULL</text>
<polygon fill="none" stroke="black" points="17.38,-471.25 17.38,-497 262.12,-497 262.12,-471.25 17.38,-471.25"/>
<text xml:space="preserve" text-anchor="start" x="22.38" y="-479.7" font-family="Helvetica,sans-Serif" font-size="14.00">admin_password</text>
<text xml:space="preserve" text-anchor="start" x="125.12" y="-479.7" font-family="Helvetica,sans-Serif" font-size="14.00"> </text>
<text xml:space="preserve" text-anchor="start" x="128.88" y="-479.7" font-family="Helvetica,sans-Serif" font-size="14.00"> [VARCHAR(120)]</text>
<polygon fill="none" stroke="black" points="17.38,-445.5 17.38,-471.25 262.12,-471.25 262.12,-445.5 17.38,-445.5"/>
<text xml:space="preserve" text-anchor="start" x="22.38" y="-453.95" font-family="Helvetica,sans-Serif" font-size="14.00">applied_at</text>
<text xml:space="preserve" text-anchor="start" x="84.62" y="-453.95" font-family="Helvetica,sans-Serif" font-size="14.00"> </text>
<text xml:space="preserve" text-anchor="start" x="88.38" y="-453.95" font-family="Helvetica,sans-Serif" font-size="14.00"> [DATETIME]</text>
<polygon fill="none" stroke="black" points="17.38,-419.75 17.38,-445.5 262.12,-445.5 262.12,-419.75 17.38,-419.75"/>
<text xml:space="preserve" text-anchor="start" x="22.38" y="-428.2" font-family="Helvetica,sans-Serif" font-size="14.00">approved_at</text>
<text xml:space="preserve" text-anchor="start" x="97.38" y="-428.2" font-family="Helvetica,sans-Serif" font-size="14.00"> </text>
<text xml:space="preserve" text-anchor="start" x="101.12" y="-428.2" font-family="Helvetica,sans-Serif" font-size="14.00"> [DATETIME]</text>
<polygon fill="none" stroke="black" points="17.38,-394 17.38,-419.75 262.12,-419.75 262.12,-394 17.38,-394"/>
<text xml:space="preserve" text-anchor="start" x="22.38" y="-402.45" font-family="Helvetica,sans-Serif" font-size="14.00">created_at</text>
<text xml:space="preserve" text-anchor="start" x="86.12" y="-402.45" font-family="Helvetica,sans-Serif" font-size="14.00"> </text>
<text xml:space="preserve" text-anchor="start" x="89.88" y="-402.45" font-family="Helvetica,sans-Serif" font-size="14.00"> [DATETIME]</text>
<polygon fill="none" stroke="black" points="17.38,-368.25 17.38,-394 262.12,-394 262.12,-368.25 17.38,-368.25"/>
<text xml:space="preserve" text-anchor="start" x="22.38" y="-376.7" font-family="Helvetica,sans-Serif" font-size="14.00">email</text>
<text xml:space="preserve" text-anchor="start" x="55.38" y="-376.7" font-family="Helvetica,sans-Serif" font-size="14.00"> </text>
<text xml:space="preserve" text-anchor="start" x="59.12" y="-376.7" font-family="Helvetica,sans-Serif" font-size="14.00"> [VARCHAR(120)]</text>
<polygon fill="none" stroke="black" points="17.38,-342.5 17.38,-368.25 262.12,-368.25 262.12,-342.5 17.38,-342.5"/>
<text xml:space="preserve" text-anchor="start" x="22.38" y="-350.95" font-family="Helvetica,sans-Serif" font-size="14.00">is_admin</text>
<text xml:space="preserve" text-anchor="start" x="77.12" y="-350.95" font-family="Helvetica,sans-Serif" font-size="14.00"> </text>
<text xml:space="preserve" text-anchor="start" x="80.88" y="-350.95" font-family="Helvetica,sans-Serif" font-size="14.00"> [BOOLEAN]</text>
<text xml:space="preserve" text-anchor="start" x="158.88" y="-350.95" font-family="Helvetica,sans-Serif" font-size="14.00"> NOT NULL</text>
<polygon fill="none" stroke="black" points="17.38,-316.75 17.38,-342.5 262.12,-342.5 262.12,-316.75 17.38,-316.75"/>
<text xml:space="preserve" text-anchor="start" x="22.38" y="-325.2" font-family="Helvetica,sans-Serif" font-size="14.00">is_applied</text>
<text xml:space="preserve" text-anchor="start" x="83.12" y="-325.2" font-family="Helvetica,sans-Serif" font-size="14.00"> </text>
<text xml:space="preserve" text-anchor="start" x="86.88" y="-325.2" font-family="Helvetica,sans-Serif" font-size="14.00"> [BOOLEAN]</text>
<text xml:space="preserve" text-anchor="start" x="164.88" y="-325.2" font-family="Helvetica,sans-Serif" font-size="14.00"> NOT NULL</text>
<polygon fill="none" stroke="black" points="17.38,-291 17.38,-316.75 262.12,-316.75 262.12,-291 17.38,-291"/>
<text xml:space="preserve" text-anchor="start" x="22.38" y="-299.45" font-family="Helvetica,sans-Serif" font-size="14.00">is_banned</text>
<text xml:space="preserve" text-anchor="start" x="84.62" y="-299.45" font-family="Helvetica,sans-Serif" font-size="14.00"> </text>
<text xml:space="preserve" text-anchor="start" x="88.38" y="-299.45" font-family="Helvetica,sans-Serif" font-size="14.00"> [BOOLEAN]</text>
<text xml:space="preserve" text-anchor="start" x="166.38" y="-299.45" font-family="Helvetica,sans-Serif" font-size="14.00"> NOT NULL</text>
<polygon fill="none" stroke="black" points="17.38,-265.25 17.38,-291 262.12,-291 262.12,-265.25 17.38,-265.25"/>
<text xml:space="preserve" text-anchor="start" x="22.38" y="-273.7" font-family="Helvetica,sans-Serif" font-size="14.00">is_paid</text>
<text xml:space="preserve" text-anchor="start" x="65.12" y="-273.7" font-family="Helvetica,sans-Serif" font-size="14.00"> </text>
<text xml:space="preserve" text-anchor="start" x="68.88" y="-273.7" font-family="Helvetica,sans-Serif" font-size="14.00"> [BOOLEAN]</text>
<text xml:space="preserve" text-anchor="start" x="146.88" y="-273.7" font-family="Helvetica,sans-Serif" font-size="14.00"> NOT NULL</text>
<polygon fill="none" stroke="black" points="17.38,-239.5 17.38,-265.25 262.12,-265.25 262.12,-239.5 17.38,-239.5"/>
<text xml:space="preserve" text-anchor="start" x="22.38" y="-247.95" font-family="Helvetica,sans-Serif" font-size="14.00">oauth_provider</text>
<text xml:space="preserve" text-anchor="start" x="112.38" y="-247.95" font-family="Helvetica,sans-Serif" font-size="14.00"> </text>
<text xml:space="preserve" text-anchor="start" x="116.12" y="-247.95" font-family="Helvetica,sans-Serif" font-size="14.00"> [VARCHAR(50)]</text>
<polygon fill="none" stroke="black" points="17.38,-213.75 17.38,-239.5 262.12,-239.5 262.12,-213.75 17.38,-213.75"/>
<text xml:space="preserve" text-anchor="start" x="22.38" y="-222.2" font-family="Helvetica,sans-Serif" font-size="14.00">oauth_sub</text>
<text xml:space="preserve" text-anchor="start" x="85.38" y="-222.2" font-family="Helvetica,sans-Serif" font-size="14.00"> </text>
<text xml:space="preserve" text-anchor="start" x="89.12" y="-222.2" font-family="Helvetica,sans-Serif" font-size="14.00"> [VARCHAR(255)]</text>
<polygon fill="none" stroke="black" points="17.38,-188 17.38,-213.75 262.12,-213.75 262.12,-188 17.38,-188"/>
<text xml:space="preserve" text-anchor="start" x="22.38" y="-196.45" font-family="Helvetica,sans-Serif" font-size="14.00">paid_at</text>
<text xml:space="preserve" text-anchor="start" x="66.62" y="-196.45" font-family="Helvetica,sans-Serif" font-size="14.00"> </text>
<text xml:space="preserve" text-anchor="start" x="70.38" y="-196.45" font-family="Helvetica,sans-Serif" font-size="14.00"> [DATETIME]</text>
<polygon fill="none" stroke="black" points="17.38,-162.25 17.38,-188 262.12,-188 262.12,-162.25 17.38,-162.25"/>
<text xml:space="preserve" text-anchor="start" x="22.38" y="-170.7" font-family="Helvetica,sans-Serif" font-size="14.00">password</text>
<text xml:space="preserve" text-anchor="start" x="80.12" y="-170.7" font-family="Helvetica,sans-Serif" font-size="14.00"> </text>
<text xml:space="preserve" text-anchor="start" x="83.88" y="-170.7" font-family="Helvetica,sans-Serif" font-size="14.00"> [VARCHAR(120)]</text>
<polygon fill="none" stroke="black" points="17.38,-136.5 17.38,-162.25 262.12,-162.25 262.12,-136.5 17.38,-136.5"/>
<text xml:space="preserve" text-anchor="start" x="22.38" y="-144.95" font-family="Helvetica,sans-Serif" font-size="14.00">subscription_expires_at</text>
<text xml:space="preserve" text-anchor="start" x="164.12" y="-144.95" font-family="Helvetica,sans-Serif" font-size="14.00"> </text>
<text xml:space="preserve" text-anchor="start" x="167.88" y="-144.95" font-family="Helvetica,sans-Serif" font-size="14.00"> [DATETIME]</text>
<polygon fill="none" stroke="black" points="17.38,-110.75 17.38,-136.5 262.12,-136.5 262.12,-110.75 17.38,-110.75"/>
<text xml:space="preserve" text-anchor="start" x="22.38" y="-119.2" font-family="Helvetica,sans-Serif" font-size="14.00">thumbnail</text>
<text xml:space="preserve" text-anchor="start" x="81.62" y="-119.2" font-family="Helvetica,sans-Serif" font-size="14.00"> </text>
<text xml:space="preserve" text-anchor="start" x="85.38" y="-119.2" font-family="Helvetica,sans-Serif" font-size="14.00"> [VARCHAR(50)]</text>
<text xml:space="preserve" text-anchor="start" x="185.88" y="-119.2" font-family="Helvetica,sans-Serif" font-size="14.00"> NOT NULL</text>
<polygon fill="none" stroke="black" points="17.38,-85 17.38,-110.75 262.12,-110.75 262.12,-85 17.38,-85"/>
<text xml:space="preserve" text-anchor="start" x="22.38" y="-93.45" font-family="Helvetica,sans-Serif" font-size="14.00">username</text>
<text xml:space="preserve" text-anchor="start" x="83.12" y="-93.45" font-family="Helvetica,sans-Serif" font-size="14.00"> </text>
<text xml:space="preserve" text-anchor="start" x="86.88" y="-93.45" font-family="Helvetica,sans-Serif" font-size="14.00"> [VARCHAR(12)]</text>
</g>
<!-- users&#45;&#45;favorites -->
<g id="edge4" class="edge">
<title>users&#45;&#45;favorites</title>
<path fill="none" stroke="#7f7f7f" stroke-dasharray="5,2" d="M270.01,-297.41C375.07,-283.8 526.84,-271.67 658.25,-290.25 682.21,-293.64 707.36,-299.27 731.32,-305.68"/>
<text xml:space="preserve" text-anchor="start" x="707.32" y="-292.38" font-family="Times New Roman,serif" font-size="14.00">0..N</text>
<text xml:space="preserve" text-anchor="start" x="270.01" y="-284.11" font-family="Times New Roman,serif" font-size="14.00">1</text>
</g>
<!-- users&#45;&#45;memos -->
<g id="edge5" class="edge">
<title>users&#45;&#45;memos</title>
<path fill="none" stroke="#7f7f7f" stroke-dasharray="5,2" d="M269.97,-354.5C296.72,-362 325.12,-369.97 352.58,-377.67"/>
<text xml:space="preserve" text-anchor="start" x="328.58" y="-364.37" font-family="Times New Roman,serif" font-size="14.00">0..N</text>
<text xml:space="preserve" text-anchor="start" x="269.97" y="-341.2" font-family="Times New Roman,serif" font-size="14.00">1</text>
</g>
<!-- fixed_pages -->
<g id="node7" class="node">
<title>fixed_pages</title>
<polygon fill="none" stroke="black" points="19.62,-809.75 19.62,-838.5 259.88,-838.5 259.88,-809.75 19.62,-809.75"/>
<text xml:space="preserve" text-anchor="start" x="93.25" y="-819.3" font-family="Helvetica,sans-Serif" font-weight="bold" font-size="16.00">fixed_pages</text>
<polygon fill="none" stroke="black" points="19.62,-784 19.62,-809.75 259.88,-809.75 259.88,-784 19.62,-784"/>
<text xml:space="preserve" text-anchor="start" x="24.62" y="-792.45" font-family="Helvetica,sans-Serif" text-decoration="underline" font-size="14.00">id</text>
<text xml:space="preserve" text-anchor="start" x="35.12" y="-792.45" font-family="Helvetica,sans-Serif" font-size="14.00"> </text>
<text xml:space="preserve" text-anchor="start" x="38.88" y="-792.45" font-family="Helvetica,sans-Serif" font-size="14.00"> [INTEGER]</text>
<text xml:space="preserve" text-anchor="start" x="110.88" y="-792.45" font-family="Helvetica,sans-Serif" font-size="14.00"> NOT NULL</text>
<polygon fill="none" stroke="black" points="19.62,-758.25 19.62,-784 259.88,-784 259.88,-758.25 19.62,-758.25"/>
<text xml:space="preserve" text-anchor="start" x="24.62" y="-766.7" font-family="Helvetica,sans-Serif" font-size="14.00">created_at</text>
<text xml:space="preserve" text-anchor="start" x="88.38" y="-766.7" font-family="Helvetica,sans-Serif" font-size="14.00"> </text>
<text xml:space="preserve" text-anchor="start" x="92.12" y="-766.7" font-family="Helvetica,sans-Serif" font-size="14.00"> [DATETIME]</text>
<text xml:space="preserve" text-anchor="start" x="171.62" y="-766.7" font-family="Helvetica,sans-Serif" font-size="14.00"> NOT NULL</text>
<polygon fill="none" stroke="black" points="19.62,-732.5 19.62,-758.25 259.88,-758.25 259.88,-732.5 19.62,-732.5"/>
<text xml:space="preserve" text-anchor="start" x="24.62" y="-740.95" font-family="Helvetica,sans-Serif" font-size="14.00">image</text>
<text xml:space="preserve" text-anchor="start" x="62.12" y="-740.95" font-family="Helvetica,sans-Serif" font-size="14.00"> </text>
<text xml:space="preserve" text-anchor="start" x="65.88" y="-740.95" font-family="Helvetica,sans-Serif" font-size="14.00"> [VARCHAR(255)]</text>
<polygon fill="none" stroke="black" points="19.62,-706.75 19.62,-732.5 259.88,-732.5 259.88,-706.75 19.62,-706.75"/>
<text xml:space="preserve" text-anchor="start" x="24.62" y="-715.2" font-family="Helvetica,sans-Serif" font-size="14.00">key</text>
<text xml:space="preserve" text-anchor="start" x="45.62" y="-715.2" font-family="Helvetica,sans-Serif" font-size="14.00"> </text>
<text xml:space="preserve" text-anchor="start" x="49.38" y="-715.2" font-family="Helvetica,sans-Serif" font-size="14.00"> [VARCHAR(50)]</text>
<text xml:space="preserve" text-anchor="start" x="149.88" y="-715.2" font-family="Helvetica,sans-Serif" font-size="14.00"> NOT NULL</text>
<polygon fill="none" stroke="black" points="19.62,-681 19.62,-706.75 259.88,-706.75 259.88,-681 19.62,-681"/>
<text xml:space="preserve" text-anchor="start" x="24.62" y="-689.45" font-family="Helvetica,sans-Serif" font-size="14.00">nav_type</text>
<text xml:space="preserve" text-anchor="start" x="79.38" y="-689.45" font-family="Helvetica,sans-Serif" font-size="14.00"> </text>
<text xml:space="preserve" text-anchor="start" x="83.12" y="-689.45" font-family="Helvetica,sans-Serif" font-size="14.00"> [VARCHAR(10)]</text>
<text xml:space="preserve" text-anchor="start" x="183.62" y="-689.45" font-family="Helvetica,sans-Serif" font-size="14.00"> NOT NULL</text>
<polygon fill="none" stroke="black" points="19.62,-655.25 19.62,-681 259.88,-681 259.88,-655.25 19.62,-655.25"/>
<text xml:space="preserve" text-anchor="start" x="24.62" y="-663.7" font-family="Helvetica,sans-Serif" font-size="14.00">order</text>
<text xml:space="preserve" text-anchor="start" x="56.12" y="-663.7" font-family="Helvetica,sans-Serif" font-size="14.00"> </text>
<text xml:space="preserve" text-anchor="start" x="59.88" y="-663.7" font-family="Helvetica,sans-Serif" font-size="14.00"> [INTEGER]</text>
<text xml:space="preserve" text-anchor="start" x="131.88" y="-663.7" font-family="Helvetica,sans-Serif" font-size="14.00"> NOT NULL</text>
<polygon fill="none" stroke="black" points="19.62,-629.5 19.62,-655.25 259.88,-655.25 259.88,-629.5 19.62,-629.5"/>
<text xml:space="preserve" text-anchor="start" x="24.62" y="-637.95" font-family="Helvetica,sans-Serif" font-size="14.00">summary</text>
<text xml:space="preserve" text-anchor="start" x="81.62" y="-637.95" font-family="Helvetica,sans-Serif" font-size="14.00"> </text>
<text xml:space="preserve" text-anchor="start" x="85.38" y="-637.95" font-family="Helvetica,sans-Serif" font-size="14.00"> [TEXT]</text>
<polygon fill="none" stroke="black" points="19.62,-603.75 19.62,-629.5 259.88,-629.5 259.88,-603.75 19.62,-603.75"/>
<text xml:space="preserve" text-anchor="start" x="24.62" y="-612.2" font-family="Helvetica,sans-Serif" font-size="14.00">title</text>
<text xml:space="preserve" text-anchor="start" x="45.62" y="-612.2" font-family="Helvetica,sans-Serif" font-size="14.00"> </text>
<text xml:space="preserve" text-anchor="start" x="49.38" y="-612.2" font-family="Helvetica,sans-Serif" font-size="14.00"> [VARCHAR(100)]</text>
<text xml:space="preserve" text-anchor="start" x="157.38" y="-612.2" font-family="Helvetica,sans-Serif" font-size="14.00"> NOT NULL</text>
<polygon fill="none" stroke="black" points="19.62,-578 19.62,-603.75 259.88,-603.75 259.88,-578 19.62,-578"/>
<text xml:space="preserve" text-anchor="start" x="24.62" y="-586.45" font-family="Helvetica,sans-Serif" font-size="14.00">visible</text>
<text xml:space="preserve" text-anchor="start" x="62.12" y="-586.45" font-family="Helvetica,sans-Serif" font-size="14.00"> </text>
<text xml:space="preserve" text-anchor="start" x="65.88" y="-586.45" font-family="Helvetica,sans-Serif" font-size="14.00"> [BOOLEAN]</text>
<text xml:space="preserve" text-anchor="start" x="143.88" y="-586.45" font-family="Helvetica,sans-Serif" font-size="14.00"> NOT NULL</text>
</g>
<!-- thumbnail_configs -->
<g id="node8" class="node">
<title>thumbnail_configs</title>
<polygon fill="none" stroke="black" points="17.38,-941.5 17.38,-970.25 262.12,-970.25 262.12,-941.5 17.38,-941.5"/>
<text xml:space="preserve" text-anchor="start" x="68.5" y="-951.05" font-family="Helvetica,sans-Serif" font-weight="bold" font-size="16.00">thumbnail_configs</text>
<polygon fill="none" stroke="black" points="17.38,-915.75 17.38,-941.5 262.12,-941.5 262.12,-915.75 17.38,-915.75"/>
<text xml:space="preserve" text-anchor="start" x="22.38" y="-924.2" font-family="Helvetica,sans-Serif" text-decoration="underline" font-size="14.00">id</text>
<text xml:space="preserve" text-anchor="start" x="32.88" y="-924.2" font-family="Helvetica,sans-Serif" font-size="14.00"> </text>
<text xml:space="preserve" text-anchor="start" x="36.62" y="-924.2" font-family="Helvetica,sans-Serif" font-size="14.00"> [INTEGER]</text>
<text xml:space="preserve" text-anchor="start" x="108.62" y="-924.2" font-family="Helvetica,sans-Serif" font-size="14.00"> NOT NULL</text>
<polygon fill="none" stroke="black" points="17.38,-890 17.38,-915.75 262.12,-915.75 262.12,-890 17.38,-890"/>
<text xml:space="preserve" text-anchor="start" x="22.38" y="-898.45" font-family="Helvetica,sans-Serif" font-size="14.00">filename</text>
<text xml:space="preserve" text-anchor="start" x="74.12" y="-898.45" font-family="Helvetica,sans-Serif" font-size="14.00"> </text>
<text xml:space="preserve" text-anchor="start" x="77.88" y="-898.45" font-family="Helvetica,sans-Serif" font-size="14.00"> [VARCHAR(255)]</text>
<text xml:space="preserve" text-anchor="start" x="185.88" y="-898.45" font-family="Helvetica,sans-Serif" font-size="14.00"> NOT NULL</text>
<polygon fill="none" stroke="black" points="17.38,-864.25 17.38,-890 262.12,-890 262.12,-864.25 17.38,-864.25"/>
<text xml:space="preserve" text-anchor="start" x="22.38" y="-872.7" font-family="Helvetica,sans-Serif" font-size="14.00">visible</text>
<text xml:space="preserve" text-anchor="start" x="59.88" y="-872.7" font-family="Helvetica,sans-Serif" font-size="14.00"> </text>
<text xml:space="preserve" text-anchor="start" x="63.62" y="-872.7" font-family="Helvetica,sans-Serif" font-size="14.00"> [BOOLEAN]</text>
<text xml:space="preserve" text-anchor="start" x="141.62" y="-872.7" font-family="Helvetica,sans-Serif" font-size="14.00"> NOT NULL</text>
</g>
</g>
</svg>
