<?xml version="1.0" encoding="UTF-8" standalone="no"?>
<!DOCTYPE svg PUBLIC "-//W3C//DTD SVG 1.1//EN"
 "http://www.w3.org/Graphics/SVG/1.1/DTD/svg11.dtd">
<!-- Generated by graphviz version 14.1.2 (20260124.0452)
 -->
<!-- Title: packages_Memo Pages: 1 -->
<svg width="1324pt" height="332pt"
 viewBox="0.00 0.00 1324.00 332.00" xmlns="http://www.w3.org/2000/svg" xmlns:xlink="http://www.w3.org/1999/xlink">
<g id="graph0" class="graph" transform="scale(1 1) rotate(0) translate(4 328)">
<title>packages_Memo</title>
<polygon fill="white" stroke="none" points="-4,4 -4,-328 1320.38,-328 1320.38,4 -4,4"/>
<!-- app -->
<g id="node1" class="node">
<title>app</title>
<polygon fill="none" stroke="black" points="322.38,-108 268.38,-108 268.38,-72 322.38,-72 322.38,-108"/>
<text xml:space="preserve" text-anchor="start" x="285.62" y="-84.95" font-family="Times New Roman,serif" font-size="14.00">app</text>
</g>
<!-- auth.views -->
<g id="node3" class="node">
<title>auth.views</title>
<polygon fill="none" stroke="black" points="467.62,-180 393.12,-180 393.12,-144 467.62,-144 467.62,-180"/>
<text xml:space="preserve" text-anchor="start" x="401.12" y="-156.95" font-family="Times New Roman,serif" font-size="14.00">auth.views</text>
</g>
<!-- app&#45;&gt;auth.views -->
<g id="edge1" class="edge">
<title>app&#45;&gt;auth.views</title>
<path fill="none" stroke="black" d="M322.69,-105.17C341.18,-114.75 366,-127.62 387.15,-138.59"/>
<polygon fill="black" stroke="black" points="395.8,-143.07 384.85,-142.46 392.44,-141.33 386.92,-138.47 386.92,-138.47 386.92,-138.47 392.44,-141.33 388.99,-134.47 395.8,-143.07"/>
</g>
<!-- errors.views -->
<g id="node6" class="node">
<title>errors.views</title>
<polygon fill="none" stroke="black" points="82.75,-252 0,-252 0,-216 82.75,-216 82.75,-252"/>
<text xml:space="preserve" text-anchor="start" x="8" y="-228.95" font-family="Times New Roman,serif" font-size="14.00">errors.views</text>
</g>
<!-- app&#45;&gt;errors.views -->
<g id="edge2" class="edge">
<title>app&#45;&gt;errors.views</title>
<path fill="none" stroke="black" d="M268.01,-95.66C233.84,-102.38 174.54,-117.03 130.38,-144 103.04,-160.69 77.84,-187.44 61.28,-207.26"/>
<polygon fill="black" stroke="black" points="55.07,-214.87 57.9,-204.28 57.46,-211.94 61.39,-207.12 61.39,-207.12 61.39,-207.12 57.46,-211.94 64.88,-209.96 55.07,-214.87"/>
</g>
<!-- favorite.views -->
<g id="node12" class="node">
<title>favorite.views</title>
<polygon fill="none" stroke="black" points="194,-252 100.75,-252 100.75,-216 194,-216 194,-252"/>
<text xml:space="preserve" text-anchor="start" x="108.75" y="-228.95" font-family="Times New Roman,serif" font-size="14.00">favorite.views</text>
</g>
<!-- app&#45;&gt;favorite.views -->
<g id="edge3" class="edge">
<title>app&#45;&gt;favorite.views</title>
<path fill="none" stroke="black" d="M268.16,-91.56C232.67,-93.94 171.78,-104.01 143.38,-144 130.93,-161.52 133.17,-186.24 137.83,-205.18"/>
<polygon fill="black" stroke="black" points="140.51,-214.67 133.46,-206.27 139.48,-211.03 137.79,-205.05 137.79,-205.05 137.79,-205.05 139.48,-211.03 142.12,-203.82 140.51,-214.67"/>
</g>
<!-- fixed.views -->
<g id="node14" class="node">
<title>fixed.views</title>
<polygon fill="none" stroke="black" points="231.88,-180 152.88,-180 152.88,-144 231.88,-144 231.88,-180"/>
<text xml:space="preserve" text-anchor="start" x="160.88" y="-156.95" font-family="Times New Roman,serif" font-size="14.00">fixed.views</text>
</g>
<!-- app&#45;&gt;fixed.views -->
<g id="edge4" class="edge">
<title>app&#45;&gt;fixed.views</title>
<path fill="none" stroke="black" d="M269.65,-108.48C256.65,-117.32 240.69,-128.16 226.66,-137.7"/>
<polygon fill="black" stroke="black" points="218.78,-143.05 224.52,-133.71 221.91,-140.93 227.05,-137.43 227.05,-137.43 227.05,-137.43 221.91,-140.93 229.58,-141.16 218.78,-143.05"/>
</g>
<!-- memo.views -->
<g id="node17" class="node">
<title>memo.views</title>
<polygon fill="none" stroke="black" points="374.62,-180 288.12,-180 288.12,-144 374.62,-144 374.62,-180"/>
<text xml:space="preserve" text-anchor="start" x="296.12" y="-156.95" font-family="Times New Roman,serif" font-size="14.00">memo.views</text>
</g>
<!-- app&#45;&gt;memo.views -->
<g id="edge5" class="edge">
<title>app&#45;&gt;memo.views</title>
<path fill="none" stroke="black" d="M304.27,-108.3C308.28,-116.1 313.11,-125.49 317.58,-134.17"/>
<polygon fill="black" stroke="black" points="322.02,-142.81 313.45,-135.98 320.29,-139.45 317.45,-133.92 317.45,-133.92 317.45,-133.92 320.29,-139.45 321.45,-131.86 322.02,-142.81"/>
</g>
<!-- models -->
<g id="node18" class="node">
<title>models</title>
<polygon fill="none" stroke="black" points="326.25,-324 270.5,-324 270.5,-288 326.25,-288 326.25,-324"/>
<text xml:space="preserve" text-anchor="start" x="278.5" y="-300.95" font-family="Times New Roman,serif" font-size="14.00">models</text>
</g>
<!-- app&#45;&gt;models -->
<g id="edge6" class="edge">
<title>app&#45;&gt;models</title>
<path fill="none" stroke="black" d="M288.72,-108.37C285.17,-118.58 281.17,-131.83 279.38,-144 272.53,-190.37 282.63,-244.55 290.53,-276.75"/>
<polygon fill="black" stroke="black" points="293,-286.38 286.16,-277.82 292.06,-282.72 290.51,-276.7 290.51,-276.7 290.51,-276.7 292.06,-282.72 294.87,-275.58 293,-286.38"/>
</g>
<!-- public.views -->
<g id="node20" class="node">
<title>public.views</title>
<polygon fill="none" stroke="black" points="521.88,-252 436.88,-252 436.88,-216 521.88,-216 521.88,-252"/>
<text xml:space="preserve" text-anchor="start" x="444.88" y="-228.95" font-family="Times New Roman,serif" font-size="14.00">public.views</text>
</g>
<!-- app&#45;&gt;public.views -->
<g id="edge7" class="edge">
<title>app&#45;&gt;public.views</title>
<path fill="none" stroke="black" d="M322.54,-95.03C368.27,-102.41 457.46,-119.62 476.38,-144 489.54,-160.97 489.3,-185.74 486.33,-204.84"/>
<polygon fill="black" stroke="black" points="484.51,-214.41 481.95,-203.74 485.21,-210.69 486.37,-204.58 486.37,-204.58 486.37,-204.58 485.21,-210.69 490.8,-205.43 484.51,-214.41"/>
</g>
<!-- auth -->
<g id="node2" class="node">
<title>auth</title>
<polygon fill="none" stroke="black" points="644.38,-36 590.38,-36 590.38,0 644.38,0 644.38,-36"/>
<text xml:space="preserve" text-anchor="start" x="605.75" y="-12.95" font-family="Times New Roman,serif" font-size="14.00">auth</text>
</g>
<!-- forms -->
<g id="node15" class="node">
<title>forms</title>
<polygon fill="none" stroke="black" points="380.38,-252 326.38,-252 326.38,-216 380.38,-216 380.38,-252"/>
<text xml:space="preserve" text-anchor="start" x="337.25" y="-228.95" font-family="Times New Roman,serif" font-size="14.00">forms</text>
</g>
<!-- auth.views&#45;&gt;forms -->
<g id="edge8" class="edge">
<title>auth.views&#45;&gt;forms</title>
<path fill="none" stroke="black" d="M411.34,-180.3C402.09,-188.72 390.79,-198.98 380.64,-208.21"/>
<polygon fill="black" stroke="black" points="373.36,-214.83 377.73,-204.78 376.16,-212.29 380.76,-208.11 380.76,-208.11 380.76,-208.11 376.16,-212.29 383.78,-211.44 373.36,-214.83"/>
</g>
<!-- auth.views&#45;&gt;models -->
<g id="edge9" class="edge">
<title>auth.views&#45;&gt;models</title>
<path fill="none" stroke="black" d="M425.88,-180.17C420.11,-199.51 408.48,-230.97 389.38,-252 374.88,-267.95 354.45,-280.45 336.61,-289.29"/>
<polygon fill="black" stroke="black" points="327.57,-293.55 334.7,-285.22 330.99,-291.94 336.62,-289.29 336.62,-289.29 336.62,-289.29 330.99,-291.94 338.54,-293.36 327.57,-293.55"/>
</g>
<!-- config -->
<g id="node4" class="node">
<title>config</title>
<polygon fill="none" stroke="black" points="716.38,-36 662.38,-36 662.38,0 716.38,0 716.38,-36"/>
<text xml:space="preserve" text-anchor="start" x="672.12" y="-12.95" font-family="Times New Roman,serif" font-size="14.00">config</text>
</g>
<!-- errors -->
<g id="node5" class="node">
<title>errors</title>
<polygon fill="none" stroke="black" points="788.38,-36 734.38,-36 734.38,0 788.38,0 788.38,-36"/>
<text xml:space="preserve" text-anchor="start" x="745.62" y="-12.95" font-family="Times New Roman,serif" font-size="14.00">errors</text>
</g>
<!-- errors.views&#45;&gt;models -->
<g id="edge10" class="edge">
<title>errors.views&#45;&gt;models</title>
<path fill="none" stroke="black" d="M83.04,-249.43C85.85,-250.33 88.65,-251.19 91.38,-252 149.35,-269.25 217.45,-286.03 259.25,-295.93"/>
<polygon fill="black" stroke="black" points="268.88,-298.2 258.11,-300.29 265.19,-297.34 259.14,-295.91 259.14,-295.91 259.14,-295.91 265.19,-297.34 260.17,-291.53 268.88,-298.2"/>
</g>
<!-- factories -->
<g id="node7" class="node">
<title>factories</title>
<polygon fill="none" stroke="black" points="868.62,-36 806.12,-36 806.12,0 868.62,0 868.62,-36"/>
<text xml:space="preserve" text-anchor="start" x="814.12" y="-12.95" font-family="Times New Roman,serif" font-size="14.00">factories</text>
</g>
<!-- factories.body_factory -->
<g id="node8" class="node">
<title>factories.body_factory</title>
<polygon fill="none" stroke="black" points="1024.5,-36 886.25,-36 886.25,0 1024.5,0 1024.5,-36"/>
<text xml:space="preserve" text-anchor="start" x="894.25" y="-12.95" font-family="Times New Roman,serif" font-size="14.00">factories.body_factory</text>
</g>
<!-- factories.category_factory -->
<g id="node9" class="node">
<title>factories.category_factory</title>
<polygon fill="none" stroke="black" points="374.25,-36 216.5,-36 216.5,0 374.25,0 374.25,-36"/>
<text xml:space="preserve" text-anchor="start" x="224.5" y="-12.95" font-family="Times New Roman,serif" font-size="14.00">factories.category_factory</text>
</g>
<!-- factories.category_factory&#45;&gt;app -->
<g id="edge11" class="edge">
<title>factories.category_factory&#45;&gt;app</title>
<path fill="none" stroke="black" d="M295.38,-36.3C295.38,-43.68 295.38,-52.48 295.38,-60.75"/>
<polygon fill="black" stroke="black" points="295.38,-70.68 290.88,-60.68 295.38,-66.9 295.38,-60.68 295.38,-60.68 295.38,-60.68 295.38,-66.9 299.88,-60.68 295.38,-70.68"/>
</g>
<!-- factories.user_factory -->
<g id="node10" class="node">
<title>factories.user_factory</title>
<polygon fill="none" stroke="black" points="572.25,-36 438.5,-36 438.5,0 572.25,0 572.25,-36"/>
<text xml:space="preserve" text-anchor="start" x="446.5" y="-12.95" font-family="Times New Roman,serif" font-size="14.00">factories.user_factory</text>
</g>
<!-- factories.user_factory&#45;&gt;app -->
<g id="edge12" class="edge">
<title>factories.user_factory&#45;&gt;app</title>
<path fill="none" stroke="black" d="M452.92,-36.48C415.65,-48.91 366.48,-65.3 333.05,-76.44"/>
<polygon fill="black" stroke="black" points="323.94,-79.48 332,-72.05 327.53,-78.28 333.43,-76.32 333.43,-76.32 333.43,-76.32 327.53,-78.28 334.85,-80.58 323.94,-79.48"/>
</g>
<!-- factories.user_factory&#45;&gt;models -->
<g id="edge13" class="edge">
<title>factories.user_factory&#45;&gt;models</title>
<path fill="none" stroke="black" d="M514.73,-36.21C536.14,-78.21 583.04,-187.26 531.38,-252 507.55,-281.85 397.46,-296.18 337.52,-301.87"/>
<polygon fill="black" stroke="black" points="327.81,-302.76 337.36,-297.37 331.57,-302.41 337.77,-301.85 337.77,-301.85 337.77,-301.85 331.57,-302.41 338.17,-306.33 327.81,-302.76"/>
</g>
<!-- favorite -->
<g id="node11" class="node">
<title>favorite</title>
<polygon fill="none" stroke="black" points="1100.38,-36 1042.38,-36 1042.38,0 1100.38,0 1100.38,-36"/>
<text xml:space="preserve" text-anchor="start" x="1050.38" y="-12.95" font-family="Times New Roman,serif" font-size="14.00">favorite</text>
</g>
<!-- favorite.views&#45;&gt;models -->
<g id="edge14" class="edge">
<title>favorite.views&#45;&gt;models</title>
<path fill="none" stroke="black" d="M185.09,-252.48C207.97,-263.09 237.08,-276.58 260.06,-287.24"/>
<polygon fill="black" stroke="black" points="269.04,-291.4 258.08,-291.28 265.61,-289.81 259.97,-287.2 259.97,-287.2 259.97,-287.2 265.61,-289.81 261.86,-283.11 269.04,-291.4"/>
</g>
<!-- fixed -->
<g id="node13" class="node">
<title>fixed</title>
<polygon fill="none" stroke="black" points="1172.38,-36 1118.38,-36 1118.38,0 1172.38,0 1172.38,-36"/>
<text xml:space="preserve" text-anchor="start" x="1131.5" y="-12.95" font-family="Times New Roman,serif" font-size="14.00">fixed</text>
</g>
<!-- fixed.views&#45;&gt;models -->
<g id="edge15" class="edge">
<title>fixed.views&#45;&gt;models</title>
<path fill="none" stroke="black" d="M201.42,-180.49C211.35,-199.02 228.3,-228.74 246.38,-252 253.93,-261.72 263.08,-271.56 271.59,-280.08"/>
<polygon fill="black" stroke="black" points="278.6,-286.95 268.31,-283.17 275.9,-284.3 271.46,-279.95 271.46,-279.95 271.46,-279.95 275.9,-284.3 274.61,-276.74 278.6,-286.95"/>
</g>
<!-- forms&#45;&gt;models -->
<g id="edge16" class="edge">
<title>forms&#45;&gt;models</title>
<path fill="none" stroke="black" d="M339.78,-252.3C333.39,-260.44 325.63,-270.31 318.57,-279.3"/>
<polygon fill="black" stroke="black" points="312.57,-286.94 315.21,-276.29 314.9,-283.96 318.75,-279.07 318.75,-279.07 318.75,-279.07 314.9,-283.96 322.28,-281.85 312.57,-286.94"/>
</g>
<!-- memo -->
<g id="node16" class="node">
<title>memo</title>
<polygon fill="none" stroke="black" points="1244.38,-36 1190.38,-36 1190.38,0 1244.38,0 1244.38,-36"/>
<text xml:space="preserve" text-anchor="start" x="1199.75" y="-12.95" font-family="Times New Roman,serif" font-size="14.00">memo</text>
</g>
<!-- memo.views&#45;&gt;forms -->
<g id="edge17" class="edge">
<title>memo.views&#45;&gt;forms</title>
<path fill="none" stroke="black" d="M336.81,-180.3C339.18,-187.85 342.02,-196.88 344.68,-205.32"/>
<polygon fill="black" stroke="black" points="347.63,-214.73 340.34,-206.54 346.5,-211.13 344.64,-205.19 344.64,-205.19 344.64,-205.19 346.5,-211.13 348.93,-203.84 347.63,-214.73"/>
</g>
<!-- memo.views&#45;&gt;models -->
<g id="edge18" class="edge">
<title>memo.views&#45;&gt;models</title>
<path fill="none" stroke="black" d="M326.63,-180.13C323.81,-190.49 320.25,-203.97 317.38,-216 312.55,-236.2 307.67,-259.12 304.07,-276.64"/>
<polygon fill="black" stroke="black" points="302.09,-286.36 299.68,-275.66 302.84,-282.65 304.08,-276.56 304.08,-276.56 304.08,-276.56 302.84,-282.65 308.49,-277.46 302.09,-286.36"/>
</g>
<!-- public -->
<g id="node19" class="node">
<title>public</title>
<polygon fill="none" stroke="black" points="1316.38,-36 1262.38,-36 1262.38,0 1316.38,0 1316.38,-36"/>
<text xml:space="preserve" text-anchor="start" x="1272.5" y="-12.95" font-family="Times New Roman,serif" font-size="14.00">public</text>
</g>
<!-- public.views&#45;&gt;models -->
<g id="edge19" class="edge">
<title>public.views&#45;&gt;models</title>
<path fill="none" stroke="black" d="M436.48,-251.59C406.22,-263.29 366.04,-278.83 336.82,-290.13"/>
<polygon fill="black" stroke="black" points="327.73,-293.65 335.43,-285.84 331.25,-292.28 337.05,-290.04 337.05,-290.04 337.05,-290.04 331.25,-292.28 338.68,-294.24 327.73,-293.65"/>
</g>
</g>
</svg>
